<svg width="69" height="64" viewBox="0 0 69 64" fill="none" xmlns="http://www.w3.org/2000/svg">
<path d="M24.7656 20.75C23.5349 20.75 22.3545 21.2389 21.4842 22.1092C20.6139 22.9795 20.125 24.1599 20.125 25.3906V38.7969C20.125 40.0276 20.6139 41.208 21.4842 42.0783C22.3545 42.9486 23.5349 43.4375 24.7656 43.4375H44.3594C45.5901 43.4375 46.7705 42.9486 47.6408 42.0783C48.5111 41.208 49 40.0276 49 38.7969V25.3906C49 24.1599 48.5111 22.9795 47.6408 22.1092C46.7705 21.2389 45.5901 20.75 44.3594 20.75H24.7656ZM46.9375 26.3218L34.5625 32.9848L22.1875 26.3218V25.3906C22.1875 24.7069 22.4591 24.0511 22.9426 23.5676C23.4261 23.0841 24.0819 22.8125 24.7656 22.8125H44.3594C45.0431 22.8125 45.6989 23.0841 46.1824 23.5676C46.6659 24.0511 46.9375 24.7069 46.9375 25.3906V26.3218ZM22.1875 28.6638L34.0737 35.0648C34.2239 35.1457 34.3919 35.188 34.5625 35.188C34.7331 35.188 34.9011 35.1457 35.0513 35.0648L46.9375 28.6638V38.7969C46.9375 39.4806 46.6659 40.1364 46.1824 40.6199C45.6989 41.1034 45.0431 41.375 44.3594 41.375H24.7656C24.0819 41.375 23.4261 41.1034 22.9426 40.6199C22.4591 40.1364 22.1875 39.4806 22.1875 38.7969V28.6638Z" fill="#595754"/>
</svg>
