<svg width="24" height="24" viewBox="0 0 24 24" fill="none" xmlns="http://www.w3.org/2000/svg">
<g clip-path="url(#clip0_329_2491)">
<path fill-rule="evenodd" clip-rule="evenodd" d="M3.21951 0C2.36564 0 1.54675 0.339198 0.942973 0.942973C0.339198 1.54675 0 2.36564 0 3.21951C0 4.07338 0.339198 4.89228 0.942973 5.49605C1.54675 6.09983 2.36564 6.43902 3.21951 6.43902C4.07338 6.43902 4.89228 6.09983 5.49605 5.49605C6.09983 4.89228 6.43902 4.07338 6.43902 3.21951C6.43902 2.36564 6.09983 1.54675 5.49605 0.942973C4.89228 0.339198 4.07338 0 3.21951 0ZM1.7561 3.21951C1.7561 2.83139 1.91028 2.45917 2.18472 2.18472C2.45917 1.91028 2.83139 1.7561 3.21951 1.7561C3.60763 1.7561 3.97986 1.91028 4.2543 2.18472C4.52875 2.45917 4.68293 2.83139 4.68293 3.21951C4.68293 3.60763 4.52875 3.97986 4.2543 4.2543C3.97986 4.52875 3.60763 4.68293 3.21951 4.68293C2.83139 4.68293 2.45917 4.52875 2.18472 4.2543C1.91028 3.97986 1.7561 3.60763 1.7561 3.21951ZM0 7.90244C0 7.66957 0.0925083 7.44623 0.257174 7.28156C0.42184 7.1169 0.645176 7.02439 0.878049 7.02439H5.56098C5.79385 7.02439 6.01718 7.1169 6.18185 7.28156C6.34652 7.44623 6.43902 7.66957 6.43902 7.90244V23.122C6.43902 23.3548 6.34652 23.5782 6.18185 23.7428C6.01718 23.9075 5.79385 24 5.56098 24H0.878049C0.645176 24 0.42184 23.9075 0.257174 23.7428C0.0925083 23.5782 0 23.3548 0 23.122V7.90244ZM1.7561 8.78049V22.2439H4.68293V8.78049H1.7561ZM8.19512 7.90244C8.19512 7.66957 8.28763 7.44623 8.4523 7.28156C8.61696 7.1169 8.8403 7.02439 9.07317 7.02439H13.7561C13.989 7.02439 14.2123 7.1169 14.377 7.28156C14.5416 7.44623 14.6341 7.66957 14.6341 7.90244V8.41054L15.1434 8.19161C16.0215 7.81636 16.953 7.58131 17.904 7.49502C21.1528 7.2 24 9.7522 24 13.0302V23.122C24 23.3548 23.9075 23.5782 23.7428 23.7428C23.5782 23.9075 23.3548 24 23.122 24H18.439C18.2062 24 17.9828 23.9075 17.8181 23.7428C17.6535 23.5782 17.561 23.3548 17.561 23.122V14.9268C17.561 14.5387 17.4068 14.1665 17.1324 13.892C16.8579 13.6176 16.4857 13.4634 16.0976 13.4634C15.7094 13.4634 15.3372 13.6176 15.0628 13.892C14.7883 14.1665 14.6341 14.5387 14.6341 14.9268V23.122C14.6341 23.3548 14.5416 23.5782 14.377 23.7428C14.2123 23.9075 13.989 24 13.7561 24H9.07317C8.8403 24 8.61696 23.9075 8.4523 23.7428C8.28763 23.5782 8.19512 23.3548 8.19512 23.122V7.90244ZM9.95122 8.78049V22.2439H12.878V14.9268C12.878 14.073 13.2172 13.2541 13.821 12.6503C14.4248 12.0465 15.2437 11.7073 16.0976 11.7073C16.9514 11.7073 17.7703 12.0465 18.3741 12.6503C18.9779 13.2541 19.3171 14.073 19.3171 14.9268V22.2439H22.2439V13.0302C22.2439 10.8012 20.2993 9.04039 18.0644 9.2441C17.2966 9.31395 16.5445 9.50356 15.8353 9.80605L14.1026 10.5495C13.969 10.6069 13.8232 10.6302 13.6783 10.6173C13.5334 10.6044 13.394 10.5557 13.2726 10.4756C13.1512 10.3955 13.0516 10.2865 12.9827 10.1584C12.9138 10.0303 12.8779 9.88711 12.878 9.74166V8.78049H9.95122Z" fill="#595754"/>
</g>
<defs>
<clipPath id="clip0_329_2491">
<rect width="24" height="24" fill="white"/>
</clipPath>
</defs>
</svg>
