<svg width="24" height="18" viewBox="0 0 24 18" fill="none" xmlns="http://www.w3.org/2000/svg">
<g clip-path="url(#clip0_329_2495)">
<path d="M24 8.92504C24 8.86611 24 8.79915 23.9973 8.72147C23.9946 8.50451 23.9893 8.26076 23.9839 8.00093C23.9625 7.25361 23.925 6.50897 23.8661 5.80718C23.7857 4.84022 23.6679 4.03397 23.5071 3.42861C23.3375 2.79687 23.0051 2.22071 22.543 1.75771C22.081 1.29471 21.5055 0.961103 20.8741 0.79022C20.1161 0.586649 18.6321 0.460756 16.5429 0.383077C15.5491 0.345577 14.4857 0.32147 13.4223 0.308077C13.05 0.30272 12.7045 0.300042 12.3938 0.297363H11.6062C11.2955 0.300042 10.95 0.30272 10.5777 0.308077C9.51429 0.32147 8.45089 0.345577 7.45714 0.383077C5.36786 0.463435 3.88125 0.589327 3.12589 0.79022C2.49429 0.960683 1.91858 1.29415 1.45646 1.75722C0.994336 2.22028 0.662036 2.79666 0.492857 3.42861C0.329464 4.03397 0.214286 4.84022 0.133929 5.80718C0.075 6.50897 0.0375 7.25361 0.0160714 8.00093C0.00803567 8.26076 0.0053571 8.50451 0.00267853 8.72147C0.00267853 8.79915 0 8.86611 0 8.92504V9.07504C0 9.13397 -4.09117e-08 9.20093 0.00267853 9.27861C0.0053571 9.49558 0.0107142 9.73933 0.0160714 9.99915C0.0375 10.7465 0.075 11.4911 0.133929 12.1929C0.214286 13.1599 0.332143 13.9661 0.492857 14.5715C0.835714 15.8545 1.84286 16.867 3.12589 17.2099C3.88125 17.4134 5.36786 17.5393 7.45714 17.617C8.45089 17.6545 9.51429 17.6786 10.5777 17.692C10.95 17.6974 11.2955 17.7 11.6062 17.7027H12.3938C12.7045 17.7 13.05 17.6974 13.4223 17.692C14.4857 17.6786 15.5491 17.6545 16.5429 17.617C18.6321 17.5366 20.1187 17.4108 20.8741 17.2099C22.1571 16.867 23.1643 15.8572 23.5071 14.5715C23.6705 13.9661 23.7857 13.1599 23.8661 12.1929C23.925 11.4911 23.9625 10.7465 23.9839 9.99915C23.992 9.73933 23.9946 9.49558 23.9973 9.27861C23.9973 9.20093 24 9.13397 24 9.07504V8.92504ZM22.0714 9.06433C22.0714 9.12058 22.0714 9.18218 22.0688 9.25451C22.0661 9.46343 22.0607 9.69379 22.0554 9.9429C22.0366 10.6554 21.9991 11.3679 21.9429 12.0295C21.8705 12.892 21.7688 13.5991 21.6429 14.0733C21.4768 14.692 20.9893 15.1822 20.3732 15.3456C19.8107 15.4956 18.3937 15.6161 16.4679 15.6884C15.4929 15.7259 14.4429 15.75 13.3955 15.7634C13.0286 15.7688 12.6884 15.7715 12.383 15.7715H11.617L10.6045 15.7634C9.55714 15.75 8.50982 15.7259 7.53214 15.6884C5.60625 15.6134 4.18661 15.4956 3.62679 15.3456C3.01071 15.1795 2.52321 14.692 2.35714 14.0733C2.23125 13.5991 2.12946 12.892 2.05714 12.0295C2.00089 11.3679 1.96607 10.6554 1.94464 9.9429C1.93661 9.69379 1.93393 9.46076 1.93125 9.25451C1.93125 9.18218 1.92857 9.1179 1.92857 9.06433V8.93576C1.92857 8.87951 1.92857 8.8179 1.93125 8.74558C1.93393 8.53665 1.93929 8.30629 1.94464 8.05718C1.96339 7.34468 2.00089 6.63218 2.05714 5.97058C2.12946 5.10808 2.23125 4.40093 2.35714 3.92683C2.52321 3.30808 3.01071 2.8179 3.62679 2.65451C4.18929 2.50451 5.60625 2.38397 7.53214 2.31165C8.50714 2.27415 9.55714 2.25004 10.6045 2.23665C10.9714 2.23129 11.3116 2.22861 11.617 2.22861H12.383L13.3955 2.23665C14.4429 2.25004 15.4902 2.27415 16.4679 2.31165C18.3937 2.38665 19.8134 2.50451 20.3732 2.65451C20.9893 2.82058 21.4768 3.30808 21.6429 3.92683C21.7688 4.40093 21.8705 5.10808 21.9429 5.97058C21.9991 6.63218 22.0339 7.34468 22.0554 8.05718C22.0634 8.30629 22.0661 8.53933 22.0688 8.74558C22.0688 8.8179 22.0714 8.88218 22.0714 8.93576V9.06433ZM9.61607 12.5893L15.8304 8.97326L9.61607 5.41076V12.5893Z" fill="#595754"/>
</g>
<defs>
<clipPath id="clip0_329_2495">
<rect width="24" height="17.4054" fill="white" transform="translate(0 0.297363)"/>
</clipPath>
</defs>
</svg>
