<svg width="24" height="20" viewBox="0 0 24 20" fill="none" xmlns="http://www.w3.org/2000/svg">
<g clip-path="url(#clip0_329_2497)">
<path d="M3.85714 0.571289C2.83417 0.571289 1.85309 0.977665 1.12973 1.70102C0.406376 2.42437 0 3.40545 0 4.42843V15.5713C0 16.5943 0.406376 17.5753 1.12973 18.2987C1.85309 19.0221 2.83417 19.4284 3.85714 19.4284H20.1429C21.1658 19.4284 22.1469 19.0221 22.8703 18.2987C23.5936 17.5753 24 16.5943 24 15.5713V4.42843C24 3.40545 23.5936 2.42437 22.8703 1.70102C22.1469 0.977665 21.1658 0.571289 20.1429 0.571289H3.85714ZM22.2857 5.20243L12 10.7404L1.71429 5.20243V4.42843C1.71429 3.86011 1.94005 3.31507 2.34191 2.9132C2.74378 2.51134 3.28882 2.28557 3.85714 2.28557H20.1429C20.7112 2.28557 21.2562 2.51134 21.6581 2.9132C22.0599 3.31507 22.2857 3.86011 22.2857 4.42843V5.20243ZM1.71429 7.149L11.5937 12.4693C11.7186 12.5365 11.8582 12.5717 12 12.5717C12.1418 12.5717 12.2814 12.5365 12.4063 12.4693L22.2857 7.149V15.5713C22.2857 16.1396 22.0599 16.6847 21.6581 17.0865C21.2562 17.4884 20.7112 17.7141 20.1429 17.7141H3.85714C3.28882 17.7141 2.74378 17.4884 2.34191 17.0865C1.94005 16.6847 1.71429 16.1396 1.71429 15.5713V7.149Z" fill="#595754"/>
</g>
<defs>
<clipPath id="clip0_329_2497">
<rect width="24" height="18.8571" fill="white" transform="translate(0 0.571289)"/>
</clipPath>
</defs>
</svg>
