<svg width="212" height="167" viewBox="0 0 212 167" fill="none" xmlns="http://www.w3.org/2000/svg">
<path fill-rule="evenodd" clip-rule="evenodd" d="M211.666 63.1495C209.041 84.3007 206.079 95.4734 188.789 117.624C171.499 139.774 92.3777 154.346 63.1268 154.346C33.8759 154.346 -2.17261 129.964 0.10251 101.713C2.37763 73.4627 14.2473 50.3725 42.6577 47.53C71.6918 44.6251 97.1958 58.0769 125.701 50.8626C150.344 44.6251 157.884 20.8507 174.81 13.3502C209.041 -1.81954 213.451 48.7602 211.666 63.1495Z" fill="#E0E5ED"/>
<path d="M194.055 73.48C193.088 75.2522 180.845 84.2183 173.419 85.5453C171.982 85.802 170.413 85.8903 169.165 85.0791C168.427 84.5998 167.877 83.8526 167.356 83.1132C166.162 81.4231 165.024 79.6873 163.943 77.9105C163.375 76.9768 162.812 76.0024 162.619 74.9045C162.107 71.9974 164.275 69.3863 166.418 67.5445C171.343 63.3104 177.109 60.2256 183.21 58.5617C184.29 58.2672 185.435 58.0177 186.505 58.3523C188.242 58.8953 189.28 60.7949 189.943 62.613C190.605 64.4312 191.122 66.4201 192.446 67.7501C192.749 68.0537 195.022 71.7081 194.055 73.48Z" fill="#EFEFEF"/>
<path fill-rule="evenodd" clip-rule="evenodd" d="M128.271 150.725C116.389 152.922 122.052 143.587 123.69 131.903C126.383 112.704 129.703 83.5278 129.703 83.5278C129.703 83.5278 131.868 127.985 131.868 138.81C131.868 149.635 129.703 150.461 128.271 150.725Z" fill="#EFEFEF"/>
<path d="M115.576 140.149C115.879 143.241 116.199 146.398 117.414 149.215C116.751 142.835 116.088 136.455 115.425 130.074C115.343 129.286 115.367 128.283 116.038 127.962C116.605 135.167 117.451 142.346 118.572 149.474C118.705 150.321 117.529 150.804 116.869 150.327C116.209 149.851 115.997 148.923 115.847 148.08C114.753 141.937 114.151 135.692 114.051 129.437C112.658 129.734 111.68 131.194 111.399 132.699C111.117 134.203 111.389 135.757 111.66 137.264C112.534 142.114 113.408 146.964 114.281 151.814C114.69 154.083 115.099 156.426 114.648 158.686C112.914 150.127 111.519 141.487 110.47 132.799C97.1633 141.595 80.0172 143.23 65.4909 137.089C62.3183 135.748 59.1676 133.971 57.0719 131.068C55.4213 128.781 54.5405 125.941 54.0788 123.084C52.44 112.935 55.7985 102.582 60.3569 93.5349C62.0865 90.1018 64.0564 86.5262 63.9167 82.62C63.8687 81.2752 63.6006 79.7863 64.327 78.6931C64.43 78.8956 59.5709 41.3241 61.5201 33.0134C66.2128 13.006 81.4565 10.2965 91.2166 10.5434C97.7653 10.7088 139.275 19.6263 145.272 31.7527C153.155 47.6907 151.481 61.0905 150.081 69.926C149.665 72.557 129.709 83.335 129.703 83.3895C128.563 94.854 120.907 119.835 114.486 129.043C114.849 132.745 115.212 136.447 115.576 140.149Z" fill="#EFEFEF"/>
<path fill-rule="evenodd" clip-rule="evenodd" d="M19.7607 93.4999C16.0184 91.8849 11.5585 92.3639 8.18453 94.7432C7.85789 94.9733 7.38829 94.7166 7.22656 94.3335C7.06486 93.9503 7.12536 93.5045 7.20806 93.0931C8.28567 87.7325 12.5784 83.631 17.3524 81.7458C22.1264 79.861 27.3482 79.8558 32.4229 80.1778C32.9265 80.21 33.4528 80.2523 33.8826 80.5376C34.312 80.8233 34.6009 81.4333 34.3867 81.9261C32.3907 86.5214 30.8868 91.3652 29.9152 96.3309C29.7576 97.1359 28.9858 97.67 28.2256 97.7373C27.4654 97.8043 26.7207 97.5013 26.0307 97.1503C23.881 96.0564 21.9677 94.4523 19.7607 93.4999Z" fill="#EFEFEF"/>
<path fill-rule="evenodd" clip-rule="evenodd" d="M134.79 12.5777C134.976 9.5028 134.761 6.39964 134.155 3.38873L134.142 3.32438C134.039 2.81518 133.933 2.29153 134.028 1.78199C134.238 0.655244 135.396 -0.0230399 136.459 0.000598249C137.522 0.0242364 138.507 0.572838 139.448 1.10864C143.959 3.67797 148.553 6.31198 152.105 10.2671C152.217 13.4691 151.518 16.6287 150.829 19.748L150.764 20.0411C147.888 33.0786 145.532 46.2506 143.706 59.5076C143.531 60.7782 143.199 62.2772 142.084 62.7221C141.284 63.0415 140.354 62.6334 139.786 61.9463C139.218 61.2591 138.947 60.3471 138.757 59.4485C138.29 57.2315 138.233 54.9143 138.593 52.6739C138.812 51.3039 139.184 49.9713 139.555 48.6383L139.555 48.6377C139.889 47.4413 140.222 46.2443 140.446 45.0198C140.67 43.7955 140.783 42.5505 140.892 41.3079C141.475 34.7001 141.968 28.0834 142.374 21.4601C142.431 20.5241 142.483 19.5585 142.2 18.6721C141.695 17.0956 140.226 16.0988 138.741 15.6421C138.486 15.5634 138.226 15.4964 137.966 15.4294C137.361 15.2735 136.757 15.1175 136.205 14.8138C135.416 14.3795 134.732 13.5324 134.79 12.5777ZM137.547 12.3249C139.645 12.8036 141.695 13.5262 143.651 14.4767C144.045 14.6681 144.459 14.892 144.672 15.2981C144.846 15.6297 144.856 16.0292 144.861 16.4104C144.922 20.8869 144.935 25.3755 144.497 29.8273C144.234 32.4932 143.811 35.1357 143.387 37.7779C143.253 38.6141 143.119 39.4507 142.99 40.2875C142.352 44.4298 141.838 48.594 141.45 52.7721C141.169 55.8037 140.962 58.937 141.835 61.834C142.282 61.7457 142.455 61.1629 142.54 60.6797L150.601 14.7472C150.797 13.6342 150.992 12.4835 150.761 11.3784C150.359 9.44371 148.77 8.0983 147.238 7.00668C144.29 4.90551 141.151 3.11591 137.882 1.67168C137.61 5.21412 137.498 8.77067 137.547 12.3249ZM141.693 42.4915C143.169 34.3002 143.835 25.9385 143.678 17.5949C143.666 16.9646 143.635 16.2873 143.278 15.7886C143.017 15.4232 142.618 15.2091 142.228 15.0203C140.763 14.3112 139.224 13.7836 137.649 13.451C137.193 13.3548 136.523 13.4592 136.543 13.9609L142.203 16.4892C142.536 16.6376 142.889 16.8053 143.077 17.1366C143.261 17.4613 143.243 17.8694 143.219 18.2492L141.693 42.4915ZM136.425 0.861421C135.958 0.526875 135.284 0.871599 135.024 1.40772C134.764 1.94385 134.804 2.58536 134.863 3.18715C134.949 4.07029 135.063 4.95377 135.177 5.83758C135.493 8.28905 135.808 10.7415 135.54 13.188C135.968 13.347 136.446 13.0206 136.654 12.5859C136.861 12.1513 136.867 11.6407 136.867 11.1512L136.882 2.32895C136.883 1.78987 136.841 1.1592 136.425 0.861421ZM140.617 61.6351C140.359 59.4548 140.292 57.2485 140.415 55.0548C140.482 53.8817 140.602 52.7126 140.722 51.5439C140.882 49.9982 141.041 48.4532 141.074 46.8993C139.898 50.6821 139.455 54.7285 139.779 58.7033C139.863 59.7371 140.02 60.8215 140.617 61.6351ZM141.263 44.6648C141.453 44.5732 141.532 44.286 141.42 44.0972C141.228 44.1996 141.147 44.4895 141.253 44.6901L141.263 44.6648ZM139.506 25.7202C130.149 19.483 119.57 15.7459 108.99 12.5213C105.608 11.4904 102.198 10.5025 98.7056 10.0796C88.3584 8.82681 77.8688 12.6857 69.2652 19.0244C65.8147 21.5668 62.4857 24.6936 60.9948 28.91C59.8886 32.0385 59.8965 35.4824 60.0031 38.8295C60.3709 50.3735 61.7413 61.8494 63.1098 73.3051C64.1801 73.0963 64.2858 71.4964 64.1306 70.3332C62.7077 59.6501 61.9096 48.8695 61.7431 38.0777C61.6966 35.0517 61.7112 31.9492 62.6801 29.1096C64.4337 23.969 68.9569 20.6075 73.3951 17.9616C78.9855 14.6297 85.0622 11.8282 91.4444 11.6798C99.1755 11.4996 106.503 15.2065 113.257 19.2778C117.022 21.5474 120.839 24.0823 123.234 27.9566C125.409 31.4751 126.2 35.7628 126.77 39.949C128.582 53.2353 128.648 66.7186 128.711 80.1483C128.713 80.6917 128.682 81.3141 128.289 81.652C128.02 81.8828 127.652 81.9117 127.309 81.931L114.696 82.6408C120.574 84.4672 127.093 83.7469 132.507 80.6726L146.521 72.7141C147.829 71.9715 149.179 71.1911 150.081 69.9258C151.321 68.1845 151.499 65.8417 151.558 63.6446C151.774 55.5299 151.023 47.3859 149.33 39.4769C149.917 48.0326 149.999 56.6287 149.574 65.1955C149.501 66.6585 149.393 68.1933 148.657 69.4235C147.871 70.7377 146.504 71.482 145.202 72.1658L130.078 80.1122C130.704 67.409 130.218 54.6424 128.63 42.0381C128.096 37.7986 127.414 33.4998 125.619 29.6865C121.378 20.6744 111.99 16.2164 103.314 12.4392C116.285 16.5414 129.406 20.7115 141.076 28.0814C141.227 27.0633 140.317 26.2616 139.506 25.7202ZM187.84 64.4963C188.513 66.3696 189.458 68.3667 191.196 69.0807C191.607 69.1152 191.853 68.5249 191.718 68.1034C191.605 67.7511 191.34 67.4947 191.079 67.2425C191.05 67.214 191.02 67.1858 190.992 67.1572C190.97 67.1362 190.948 67.1148 190.927 67.0935C189.821 65.9828 189.278 64.4132 188.744 62.8672C188.638 62.5612 188.533 62.2565 188.423 61.9561C187.761 60.138 186.722 58.2387 184.986 57.6954C183.916 57.3608 182.77 57.6103 181.69 57.9048C175.589 59.569 169.823 62.6535 164.898 66.8876C162.756 68.7294 160.588 71.3408 161.099 74.2476C161.292 75.3455 161.855 76.3202 162.423 77.254C163.504 79.0304 164.643 80.7662 165.836 82.4566C166.358 83.196 166.908 83.9432 167.645 84.4222C168.893 85.2335 170.463 85.1451 171.9 84.8884C179.326 83.5614 185.682 78.5724 191.73 73.7289C192.045 73.4768 192.373 73.2082 192.536 72.8234C192.699 72.4383 192.629 71.9025 192.283 71.7039C191.887 71.4761 191.419 71.7906 191.065 72.09C185.437 76.8534 179.425 81.5078 172.446 83.1812C171.123 83.4984 169.665 83.6852 168.475 82.9849C167.584 82.4612 166.983 81.5193 166.415 80.6112L162.895 74.9804C162.598 74.5063 162.291 73.9965 162.28 73.4242C162.269 72.852 162.697 72.2328 163.222 72.3067C168.157 73.0004 173.115 73.4991 178.083 73.8015C178.479 73.8254 178.892 73.8448 179.253 73.6669C179.717 73.4377 180 72.9301 180.247 72.4479C182.351 68.3489 183.958 63.9526 185.014 59.4065C186.418 60.4948 187.073 62.338 187.698 64.0967C187.746 64.2303 187.793 64.3639 187.84 64.4963ZM183.497 59.0467C182.557 62.8488 181.166 66.5203 179.369 69.9429C179.068 70.5168 178.734 71.1077 178.207 71.4409C177.537 71.8651 176.703 71.7853 175.932 71.6921L163.64 70.2095C165.679 67.2964 168.709 65.4057 171.736 63.7812C174.601 62.2434 177.543 60.8717 180.544 59.6737C181.494 59.2946 182.49 58.9272 183.497 59.0467ZM115.575 140.149C115.878 143.241 116.198 146.398 117.413 149.216L115.424 130.074C115.342 129.286 115.366 128.283 116.037 127.962C116.604 135.167 117.45 142.346 118.572 149.474C118.705 150.32 117.529 150.804 116.868 150.327C116.208 149.851 115.997 148.922 115.847 148.08C114.752 141.937 114.15 135.692 114.05 129.437C112.657 129.734 111.68 131.194 111.398 132.699C111.116 134.203 111.388 135.757 111.659 137.264L114.281 151.814C114.689 154.082 115.098 156.427 114.647 158.686C112.913 150.126 111.519 141.487 110.47 132.799C97.1628 141.595 80.0166 143.23 65.4903 137.09C62.3177 135.748 59.1667 133.971 57.0714 131.068C55.4207 128.78 54.54 125.941 54.0783 123.083C52.4395 112.934 55.7979 102.582 60.3564 93.5347C60.4751 93.299 60.5951 93.0626 60.7154 92.8256C62.3466 89.6091 64.0462 86.2581 63.9162 82.6201C63.9077 82.3798 63.8919 82.1346 63.8764 81.888C63.8041 80.7557 63.7297 79.5908 64.3265 78.6933C65.1268 80.2668 65.4314 82.129 65.1793 83.9042C78.9555 83.2633 92.7519 83.1339 106.536 83.5171C106.697 84.2022 105.779 84.5204 105.125 84.5099C92.2614 84.3024 79.3913 84.5394 66.5415 85.22C66.1348 85.2417 65.7075 85.2702 65.3625 85.5046C64.9995 85.7509 64.7881 86.1833 64.5932 86.5956C60.9462 94.3092 57.2873 102.135 55.5246 110.586C54.618 114.931 54.2709 119.687 56.1287 123.664C56.8336 125.172 57.8304 126.504 58.9435 127.691C64.9187 134.062 73.8664 136.015 82.2583 135.863C87.6143 135.766 92.9585 134.933 98.1219 133.393C103.596 131.759 109.055 129.184 112.792 124.561C114.986 121.846 116.477 118.559 117.783 115.242C120.277 108.908 122.19 102.308 123.484 95.5683C124.295 95.7528 124.307 96.9918 124.119 97.8641C121.805 108.658 119.115 120.162 111.492 127.568C104.606 134.257 94.9043 136.332 85.6617 136.891C80.3228 137.214 74.8997 137.114 69.7283 135.642C64.5573 134.171 59.6196 131.228 56.3367 126.665C57.2943 130.612 60.5377 133.428 63.9144 135.251C72.7801 140.036 83.2497 139.784 93.0392 138.12C99.5606 137.012 106.254 135.193 111.329 130.63C115.667 126.729 118.432 121.158 120.513 115.489C122.816 109.213 124.414 102.635 125.26 95.9455C125.787 95.5857 126.177 96.5919 126.11 97.2617C124.97 108.726 120.906 119.835 114.485 129.043L115.575 140.149ZM109.409 159.754C108.844 158.721 108.479 157.561 108.347 156.369L107.535 159.346L105.483 150.89C105.324 150.234 104.937 149.413 104.323 149.554C103.727 149.691 103.66 150.576 103.749 151.229C104.196 154.509 105.048 157.724 106.276 160.763L104.094 158.694C103.988 159.679 104.228 160.703 104.755 161.515C103.619 160.61 102.095 160.302 100.733 160.701C101.706 162.163 103.027 163.351 104.534 164.12L102.691 161.339C104.181 162.268 105.741 163.065 107.352 163.718L105.791 161.601L107.72 162.179C106.244 158.548 104.739 154.778 104.775 150.813C105.334 154.039 106.152 157.213 107.217 160.287C107.398 160.808 107.599 161.347 107.983 161.716C108.368 162.086 108.993 162.225 109.395 161.879C109.709 161.61 109.8 161.146 109.871 160.72L110.74 155.51L111.695 161.971C112.419 159.995 114.772 159.5 116.739 159.487C119.335 159.469 121.951 159.778 124.56 160.087H124.56H124.56C129.263 160.643 133.945 161.196 138.451 159.829C138.318 160.582 138.087 161.314 137.766 161.998C141.402 161.425 145.081 161.174 148.755 161.247C150.307 161.279 151.863 161.367 153.42 161.455C157.534 161.689 161.649 161.922 165.68 161.096L138.926 160.842C139.428 160.81 139.813 160.179 139.642 159.667C139.471 159.156 138.801 158.937 138.396 159.26C138.133 158.356 136.95 157.954 136.256 158.532C136.659 157.19 137.455 155.99 138.501 155.147C137.32 155.078 136.12 155.469 135.171 156.232L138.049 141.835C137.805 141.609 137.399 141.761 137.219 142.049C137.042 142.333 137.022 142.695 137.003 143.038L137.003 143.049C136.733 147.965 135.129 152.787 132.441 156.763L131.386 153.462L129.873 157.405C129.188 156.831 128.215 156.686 127.411 157.039C127.617 157.882 128.241 158.591 129.009 158.855L129.367 157.818L131.73 159.529C130.827 158.506 130.632 156.832 131.271 155.598L132.701 158.191L135.473 152.265C135.489 154.644 134.545 156.893 133.62 159.053C134.625 158.202 135.49 157.157 136.159 155.982C136.806 157.219 136.099 158.878 134.975 159.615C133.851 160.351 132.461 160.391 131.148 160.331C129.144 160.24 127.125 159.968 125.108 159.696C120.579 159.086 116.063 158.477 111.76 159.918L111.14 153.735C110.192 155.586 109.6 157.648 109.409 159.754ZM136.402 159.919C136.304 159.793 136.305 159.592 136.403 159.467L136.481 159.499C136.612 159.159 137.165 159.187 137.267 159.539C137.011 159.737 136.712 159.869 136.402 159.919ZM151.018 94.2242C147.902 92.5219 144.194 92.9812 140.736 93.4937C139.758 93.6385 138.762 93.7905 137.876 94.2609C136.991 94.7314 136.22 95.5834 136.068 96.6369C127.62 95.4967 119.525 91.4775 113.221 85.2932C111.853 83.9511 110.457 82.0397 111.072 80.1565C111.266 79.5646 111.642 79.0652 112.033 78.6013C114.973 75.118 119.025 73.0231 122.969 71.0122C118.499 71.436 114.209 73.7867 111.25 77.4345C110.571 78.2704 109.946 79.2044 109.712 80.2872C109.136 82.9609 111.057 85.4692 112.98 87.2631C119.115 92.9864 126.831 96.7032 134.87 97.807C135.352 97.8733 135.377 98.6061 135.333 99.1291C135.137 101.456 136.31 103.727 137.937 105.266C139.564 106.806 141.601 107.73 143.622 108.557C149.882 111.12 156.379 113.009 162.984 114.184C163.421 114.261 164.02 114.225 164.112 113.757C162.587 112.667 160.753 112.252 158.959 111.845C158.862 111.824 158.766 111.802 158.669 111.78C154.121 110.745 149.633 109.397 145.243 107.746C143.442 107.07 141.637 106.33 140.066 105.161C138.496 103.992 137.163 102.34 136.66 100.352C136.413 99.3697 136.749 97.9038 137.684 98.0276C141.489 98.5306 145.399 99.0273 149.115 98.0069C149.956 97.7761 150.833 97.4278 151.345 96.671C151.858 95.9143 151.793 94.6473 151.018 94.2242ZM141.419 96.9429C140.113 96.6996 138.778 96.6346 137.457 96.7495C138.099 95.4313 139.667 95.0843 141.033 94.8831C144 94.4464 147.091 94.0203 149.935 95.0374C150.123 95.1047 150.324 95.1904 150.425 95.3739C150.559 95.6155 150.461 95.9445 150.271 96.1369C150.081 96.3296 149.822 96.4169 149.571 96.4928C146.929 97.2909 144.123 97.4458 141.419 96.9429ZM98.1908 163.45C100.377 163.384 102.576 163.906 104.535 164.957C104.012 165.771 102.959 165.884 102.043 165.922L78.0953 166.905C77.8758 166.875 77.8344 166.509 77.99 166.339C78.1455 166.169 78.3884 166.147 78.6092 166.135L101.987 164.903C100.636 164.769 99.3185 164.265 98.1908 163.45ZM52.1039 77.836C51.7628 79.6004 53.1435 81.4826 54.8063 81.6158C52.0872 86.0457 47.1892 88.2316 42.4831 89.7749C39.5459 90.7379 36.2877 91.5288 33.4875 90.1699C33.14 90.3994 33.5105 90.9647 33.8774 91.1558C36.6023 92.5751 39.8329 91.7842 42.7316 90.8492C46.982 89.4778 51.3637 87.7056 54.256 84.0699C54.3744 83.9212 54.4923 83.7682 54.611 83.6139V83.6136H54.6113C55.3557 82.6464 56.132 81.6378 57.2512 81.4139C60.8548 80.6936 63.8561 78.254 66.8215 75.8432L66.8218 75.8429L66.8221 75.8426C67.4945 75.2959 68.1651 74.7506 68.8406 74.2276C72.9468 71.0463 77.501 68.542 82.2972 66.8282C82.7209 66.6765 83.236 66.3958 83.1983 65.9152C77.2516 66.5052 72.0536 70.3385 67.2607 74.1892L67.1009 74.3179C63.8436 76.9355 60.4396 79.671 56.4315 80.3197C57.7408 79.2034 57.4644 76.6243 55.9871 75.7881C54.5102 74.9519 52.4452 76.0717 52.1039 77.836ZM53.2136 78.9142C52.9464 78.0583 53.3591 77.0402 54.0923 76.6069C54.3003 76.4837 54.533 76.4017 54.7705 76.4013C55.5531 76.4007 56.125 77.3058 56.1302 78.1522C56.1354 78.9986 55.7384 79.779 55.3527 80.5157C54.4504 80.3663 53.5058 79.8489 53.2136 78.9142ZM142.199 60.0556C141.977 59.7887 142.045 59.4295 142.116 59.0572C142.166 58.7942 142.217 58.5247 142.168 58.2771C142.125 58.0621 142.01 57.8792 141.893 57.6957C141.79 57.5332 141.687 57.3703 141.634 57.1845C141.646 56.9389 141.95 56.8129 142.157 56.915C142.364 57.0168 142.48 57.2571 142.552 57.4902C142.816 58.3411 142.681 59.3248 142.199 60.0556ZM122.152 41.3834C122.706 39.9635 123.805 38.7041 125.205 38.4158C125.659 38.3226 125.644 37.5146 125.247 37.2609C124.85 37.0068 124.34 37.1571 123.924 37.3712C121.983 38.3699 120.758 40.5676 120.278 42.8319C119.798 45.0966 119.956 47.4548 120.118 49.7713L120.976 62.0852C121.005 62.5038 121.041 62.9434 121.256 63.2927C121.695 64.0038 122.638 64.0261 123.427 63.972L127.423 63.6975C126.535 62.945 125.343 62.6285 124.234 62.8498C123.585 62.9795 122.935 62.5172 122.591 61.9092C122.248 61.3012 122.147 60.5736 122.062 59.8674C121.505 55.2462 121.301 50.5754 121.452 45.9177C121.502 44.3776 121.598 42.8033 122.152 41.3834ZM132.356 150.683C132.129 150.861 131.901 150.456 131.868 150.155C130.324 136.122 130.091 121.964 129.86 107.834L129.704 98.3093C129.7 98.0378 129.703 97.7407 129.864 97.5328C130.142 97.1747 130.726 97.3388 130.969 97.7256C131.211 98.112 131.212 98.6126 131.204 99.0798C130.966 112.984 131.122 126.915 132.353 140.758C132.369 140.926 132.384 141.095 132.399 141.263C132.681 144.408 132.968 147.6 132.356 150.683ZM119.516 62.2293C119.178 62.0284 118.761 62.142 118.391 62.2605C101.27 67.734 84.1878 73.3783 67.3576 79.8203C67.0426 79.9408 66.6824 80.1145 66.6101 80.4674C66.5336 80.8407 66.8589 81.1976 67.2069 81.2669C67.555 81.3361 67.907 81.2019 68.2392 81.0695C85.106 74.3625 102.226 68.4015 119.544 63.2063C119.915 63.0947 119.855 62.4299 119.516 62.2293Z" fill="#00160A"/>
<path fill-rule="evenodd" clip-rule="evenodd" d="M180.517 145.961C180.118 146.15 179.686 146.326 179.257 146.247C178.828 146.167 178.427 145.731 178.513 145.27C179.301 141.052 178.312 136.485 175.873 133.084C175.019 131.892 174.001 130.843 173.169 129.633C172.644 128.871 172.177 127.912 172.443 127.006C172.822 125.718 174.347 125.404 175.595 125.312C178.496 125.098 181.397 124.885 184.298 124.671C185.635 124.572 187.175 124.558 188.067 125.638C190.551 128.646 195.393 128.848 198.084 126.056C198.5 125.624 199.025 126.484 199.008 127.108C198.956 129.069 198.208 130.999 196.952 132.415C196.656 132.749 196.277 133.076 195.851 133.028C195.425 132.98 195.111 132.319 195.451 132.037C196.179 131.432 196.921 130.812 197.432 129.987C197.943 129.161 198.19 128.08 197.842 127.161C195.968 129.724 194.076 132.271 192.166 134.803C188.855 139.193 185.314 143.683 180.517 145.961ZM185.75 133.043C185.273 133.186 184.765 133.076 184.289 132.931C180.864 131.885 177.71 128.993 174.207 129.67C178.291 133.226 180.46 139.187 179.71 144.798C182.401 144.175 184.526 142.003 186.432 139.857C189.253 136.681 191.931 133.357 194.455 129.9C192.641 129.884 190.834 129.319 189.293 128.285C187.389 128.794 187.64 132.478 185.75 133.043ZM188.236 127.203C187.102 125.758 185.064 125.803 183.317 125.968C181.038 126.185 178.76 126.401 176.481 126.617C175.556 126.705 174.494 126.881 174.012 127.739C177.955 128.631 181.8 130.033 185.438 131.904C185.906 130.315 186.843 128.893 188.08 127.896C188.219 127.784 188.378 127.64 188.359 127.454C188.35 127.358 188.294 127.277 188.236 127.203Z" fill="#E0E5ED"/>
<path fill-rule="evenodd" clip-rule="evenodd" d="M19.3183 92.7314C15.8865 91.2478 11.7969 91.6881 8.70301 93.8736C8.40349 94.085 7.97285 93.8493 7.82458 93.4974C7.67631 93.1451 7.73177 92.7357 7.8076 92.3578C8.79573 87.4332 12.7322 83.6652 17.1099 81.9334C21.4875 80.2019 26.276 80.197 30.9295 80.4931C31.3911 80.5223 31.8737 80.5614 32.2677 80.8237C32.6616 81.0857 32.9267 81.6461 32.7302 82.0989C30.8997 86.3206 29.5209 90.7704 28.6298 95.3319C28.4852 96.0716 27.7776 96.5624 27.0805 96.6242C26.3835 96.6859 25.7005 96.4072 25.0678 96.0848C23.0964 95.0801 21.342 93.6064 19.3183 92.7314ZM19.7105 87.7487C19.4047 88.0173 18.9267 87.8754 18.6389 87.5845C18.3511 87.2933 18.1871 86.8908 17.9609 86.5418C16.7475 84.6708 13.9631 84.8261 12.3126 86.2536C10.6621 87.6811 9.86341 89.9369 9.13614 92.0824C13.9783 89.8088 19.9422 90.6247 24.1078 94.1307C24.6763 94.6093 25.2406 95.1484 25.941 95.3329C26.6414 95.5171 27.5237 95.1858 27.701 94.4307C28.6489 90.3965 29.8167 86.4223 31.1965 82.5365C28.5487 86.0937 22.9886 84.8698 19.7105 87.7487ZM18.6569 85.5989C18.9288 85.968 19.4225 86.0661 19.8523 85.9827C20.282 85.8993 20.6725 85.6679 21.0729 85.4798C22.4516 84.832 23.9787 84.6876 25.4566 84.3914C26.9348 84.095 28.4594 83.5936 29.4999 82.4209C27.1522 82.4134 24.8045 82.4058 22.4568 82.3979C20.0975 82.3904 17.5551 82.4446 15.6597 83.9633C16.8135 84.0086 17.9379 84.6222 18.6569 85.5989Z" fill="#E0E5ED"/>
<path fill-rule="evenodd" clip-rule="evenodd" d="M129.572 92.3919C129.567 90.1597 129.561 87.9272 129.555 85.6951C129.554 85.0542 129.552 84.413 129.551 83.7719C129.55 83.33 129.618 82.7767 130.007 82.6392C130.301 82.5354 130.624 82.7636 130.762 83.0634C130.899 83.3628 130.898 83.7118 130.893 84.046C130.85 87.1613 130.807 90.2763 130.764 93.3913C130.758 93.8394 130.689 94.3906 130.301 94.5479C129.653 94.1516 129.574 93.1959 129.572 92.3919Z" fill="#00160A"/>
<path fill-rule="evenodd" clip-rule="evenodd" d="M125.449 90.3252C125.15 90.467 124.996 89.9345 125.042 89.5852C125.207 88.3353 125.373 87.0825 125.655 85.8569C125.83 85.0939 126.082 84.2912 126.665 83.8214C127.248 83.3513 128.249 83.4337 128.534 84.1566C128.673 84.5069 128.615 84.9071 128.552 85.2817C128.159 87.6005 127.63 89.8928 126.97 92.1394C126.942 92.2346 126.911 92.3341 126.844 92.4033C126.682 92.5718 126.389 92.4585 126.276 92.2477C126.164 92.037 126.178 91.7773 126.196 91.5346C126.465 91.5133 126.59 91.1719 126.654 90.8895C126.917 89.7359 127.181 88.5825 127.444 87.4288C127.649 86.5312 127.835 85.5089 127.359 84.7413C126.869 85.0673 126.685 85.7266 126.54 86.328C126.246 87.5378 125.953 88.7476 125.66 89.9575C125.625 90.1019 125.576 90.2651 125.449 90.3252Z" fill="#00160A"/>
</svg>
