<svg width="180" height="132" viewBox="0 0 180 132" fill="none" xmlns="http://www.w3.org/2000/svg">
<path fill-rule="evenodd" clip-rule="evenodd" d="M179.716 49.6009C177.488 66.2142 174.973 74.9897 160.292 92.3877C145.612 109.786 78.4339 121.231 53.5982 121.231C28.7625 121.231 -1.84466 102.08 0.0870371 79.8908C2.01874 57.7014 12.0967 39.5652 36.2188 37.3325C60.8704 35.0509 82.5247 45.6166 106.727 39.9502C127.651 35.0509 134.053 16.3773 148.424 10.486C177.488 -1.42915 181.232 38.2988 179.716 49.6009Z" fill="#F0F2AE"/>
<path d="M164.763 57.715C163.942 59.107 153.548 66.1494 147.242 67.1918C146.022 67.3934 144.69 67.4628 143.63 66.8256C143.004 66.4491 142.537 65.8622 142.094 65.2815C141.081 63.9539 140.114 62.5906 139.196 61.195C138.714 60.4616 138.236 59.6963 138.072 58.8339C137.638 56.5505 139.479 54.4997 141.298 53.053C145.479 49.7273 150.375 47.3043 155.555 45.9974C156.472 45.7661 157.445 45.5702 158.353 45.8329C159.828 46.2594 160.709 47.7515 161.272 49.1796C161.834 50.6076 162.273 52.1698 163.397 53.2144C163.654 53.453 165.584 56.3233 164.763 57.715Z" fill="#EFEFEF"/>
<path fill-rule="evenodd" clip-rule="evenodd" d="M108.909 118.388C98.821 120.114 103.629 112.781 105.02 103.604C107.306 88.524 110.126 65.6076 110.126 65.6076C110.126 65.6076 111.964 100.527 111.964 109.029C111.964 117.532 110.125 118.18 108.909 118.388Z" fill="#EFEFEF"/>
<path d="M98.1298 110.081C98.3872 112.509 98.6587 114.989 99.6907 117.202C99.1275 112.19 98.5646 107.179 98.0017 102.167C97.932 101.548 97.9527 100.76 98.522 100.508C99.0037 106.167 99.7219 111.806 100.674 117.405C100.787 118.07 99.7887 118.45 99.2281 118.075C98.6672 117.701 98.488 116.972 98.3604 116.309C97.4312 111.485 96.9202 106.58 96.8353 101.667C95.6522 101.9 94.8226 103.047 94.5833 104.229C94.344 105.41 94.5748 106.631 94.8051 107.814C95.547 111.624 96.2891 115.433 97.031 119.243C97.3779 121.025 97.725 122.866 97.342 124.64C95.8696 117.917 94.6857 111.131 93.795 104.307C82.4967 111.216 67.9387 112.501 55.605 107.677C52.9113 106.624 50.2362 105.228 48.4569 102.947C47.0554 101.151 46.3076 98.9208 45.9156 96.6763C44.5241 88.7048 47.3757 80.5736 51.246 73.4673C52.7146 70.7707 54.3871 67.9623 54.2685 64.8941C54.2278 63.8379 54.0001 62.6684 54.6169 61.8097C54.7043 61.9688 50.5787 32.4582 52.2337 25.9305C56.218 10.2157 69.1607 8.0875 77.4476 8.28142C83.0078 8.41138 118.252 15.4156 123.344 24.9403C130.037 37.4589 128.616 47.9838 127.427 54.9236C127.073 56.9902 110.13 65.4558 110.125 65.4986C109.157 74.5034 102.656 94.1249 97.2046 101.357C97.513 104.265 97.8214 107.173 98.1298 110.081Z" fill="#EFEFEF"/>
<path fill-rule="evenodd" clip-rule="evenodd" d="M16.7773 73.44C13.5998 72.1716 9.81316 72.5478 6.94843 74.4166C6.67109 74.5973 6.27237 74.3957 6.13506 74.0947C5.99777 73.7938 6.04914 73.4436 6.11935 73.1205C7.0343 68.91 10.6791 65.6885 14.7325 64.2078C18.7859 62.7273 23.2195 62.7232 27.5282 62.9762C27.9558 63.0014 28.4026 63.0347 28.7675 63.2588C29.1322 63.4831 29.3774 63.9623 29.1956 64.3493C27.5009 67.9587 26.2239 71.7633 25.399 75.6636C25.2651 76.2959 24.6099 76.7155 23.9645 76.7683C23.319 76.8209 22.6867 76.5829 22.1008 76.3073C20.2756 75.448 18.6511 74.1881 16.7773 73.44Z" fill="#EFEFEF"/>
<path fill-rule="evenodd" clip-rule="evenodd" d="M114.444 9.8792C114.602 7.46399 114.42 5.02661 113.905 2.66169L113.894 2.61114C113.807 2.21119 113.717 1.79989 113.798 1.39967C113.976 0.514663 114.959 -0.0180967 115.861 0.000469896C116.764 0.0190365 117.6 0.449937 118.399 0.87078C122.23 2.88887 126.13 4.95776 129.146 8.06431C129.241 10.5793 128.648 13.0611 128.063 15.5111L128.008 15.7414C125.565 25.9816 123.565 36.3276 122.015 46.7404C121.866 47.7383 121.584 48.9158 120.638 49.2652C119.959 49.5161 119.169 49.1955 118.687 48.6558C118.204 48.1161 117.974 47.3997 117.813 46.694C117.416 44.9526 117.368 43.1325 117.673 41.3728C117.86 40.2967 118.175 39.25 118.49 38.2031L118.491 38.2026C118.774 37.2629 119.057 36.3227 119.247 35.3609C119.437 34.3993 119.533 33.4214 119.626 32.4454C120.12 27.2552 120.539 22.0581 120.884 16.8559C120.932 16.1207 120.977 15.3623 120.736 14.666C120.308 13.4277 119.06 12.6449 117.8 12.2862C117.582 12.2243 117.362 12.1717 117.141 12.1191C116.628 11.9966 116.114 11.8741 115.646 11.6355C114.976 11.2944 114.395 10.6291 114.444 9.8792ZM116.785 9.68064C118.567 10.0566 120.308 10.6242 121.968 11.3707C122.303 11.5211 122.654 11.6969 122.835 12.0159C122.983 12.2764 122.991 12.5902 122.995 12.8896C123.048 16.4056 123.059 19.9312 122.686 23.4279C122.463 25.5218 122.104 27.5974 121.744 29.6728C121.63 30.3296 121.516 30.9866 121.407 31.6439C120.865 34.8975 120.429 38.1683 120.1 41.4499C119.86 43.8311 119.685 46.2922 120.426 48.5676C120.806 48.4983 120.952 48.0406 121.025 47.661L127.869 11.5832C128.035 10.709 128.201 9.80519 128.005 8.9372C127.663 7.41758 126.314 6.36082 125.014 5.50341C122.51 3.85304 119.846 2.4474 117.07 1.31303C116.839 4.09544 116.744 6.88894 116.785 9.68064ZM120.305 33.375C121.559 26.9411 122.125 20.3735 121.991 13.82C121.981 13.3249 121.954 12.7929 121.652 12.4012C121.43 12.1142 121.091 11.946 120.76 11.7978C119.516 11.2408 118.209 10.8264 116.872 10.5651C116.485 10.4896 115.916 10.5716 115.933 10.9656L120.739 12.9515C121.021 13.068 121.321 13.1998 121.481 13.46C121.637 13.715 121.622 14.0355 121.601 14.3339L120.305 33.375ZM115.833 0.676605C115.437 0.413835 114.864 0.684599 114.644 1.1057C114.423 1.5268 114.456 2.03068 114.506 2.50335C114.58 3.19702 114.676 3.89095 114.773 4.58514C115.041 6.51065 115.309 8.43693 115.081 10.3586C115.445 10.4834 115.851 10.2271 116.027 9.88565C116.203 9.54423 116.208 9.14324 116.209 8.75876L116.221 1.82928C116.221 1.40586 116.186 0.910492 115.833 0.676605ZM119.392 48.4114C119.173 46.6989 119.116 44.966 119.221 43.2429C119.277 42.3215 119.379 41.4032 119.481 40.4852C119.617 39.2712 119.752 38.0576 119.78 36.8371C118.782 39.8083 118.405 42.9866 118.68 46.1086C118.752 46.9206 118.885 47.7724 119.392 48.4114ZM119.941 35.0821C120.102 35.0101 120.169 34.7845 120.074 34.6362C119.911 34.7167 119.842 34.9444 119.932 35.1019L119.941 35.0821ZM118.448 20.202C110.504 15.303 101.522 12.3676 92.5389 9.83485C89.6676 9.02514 86.7719 8.2492 83.807 7.91707C75.0216 6.93304 66.1153 9.96404 58.8104 14.9427C55.8807 16.9397 53.0542 19.3956 51.7883 22.7074C50.8492 25.1647 50.8559 27.8697 50.9464 30.4987C51.2587 39.5659 52.4222 48.5798 53.5841 57.5776C54.4929 57.4136 54.5826 56.157 54.4508 55.2434C53.2427 46.8523 52.565 38.3846 52.4237 29.9082C52.3843 27.5314 52.3966 25.0945 53.2192 22.8642C54.7082 18.8265 58.5486 16.1862 62.3169 14.108C67.0635 11.4909 72.2229 9.29048 77.6418 9.17393C84.2059 9.03236 90.4275 11.944 96.1618 15.1418C99.3583 16.9245 102.6 18.9155 104.633 21.9586C106.48 24.7222 107.151 28.09 107.635 31.3781C109.173 41.8138 109.23 52.4042 109.283 62.9526C109.285 63.3794 109.259 63.8683 108.925 64.1337C108.696 64.315 108.384 64.3377 108.093 64.3529L97.3838 64.9104C102.374 66.3449 107.91 65.7792 112.506 63.3645L124.405 57.1134C125.516 56.5301 126.662 55.9172 127.427 54.9234C128.481 53.5556 128.632 51.7155 128.681 49.9898C128.865 43.616 128.228 37.2193 126.79 31.0072C127.288 37.7273 127.358 44.4791 126.997 51.208C126.935 52.357 126.843 53.5626 126.219 54.5288C125.551 55.5611 124.391 56.1457 123.285 56.6828L110.444 62.9243C110.975 52.9465 110.563 42.919 109.214 33.0189C108.761 29.689 108.182 26.3125 106.658 23.3173C103.057 16.2388 95.0862 12.7372 87.7194 9.77038C98.7332 12.9925 109.873 16.2679 119.782 22.0566C119.91 21.2569 119.138 20.6272 118.448 20.202ZM159.487 50.6587C160.058 52.1301 160.861 53.6987 162.336 54.2596C162.686 54.2867 162.895 53.823 162.78 53.4919C162.684 53.2152 162.459 53.0138 162.238 52.8158C162.212 52.7934 162.187 52.7712 162.163 52.7487C162.144 52.7322 162.126 52.7155 162.108 52.6987C161.169 51.8263 160.708 50.5935 160.255 49.3792C160.165 49.1388 160.075 48.8995 159.982 48.6636C159.42 47.2355 158.538 45.7437 157.064 45.3169C156.155 45.0542 155.183 45.2501 154.266 45.4815C149.085 46.7886 144.19 49.2113 140.008 52.537C138.189 53.9837 136.349 56.0348 136.783 58.318C136.946 59.1803 137.425 59.9459 137.907 60.6793C138.825 62.0746 139.791 63.438 140.805 64.7657C141.248 65.3465 141.714 65.9334 142.341 66.3096C143.4 66.9468 144.733 66.8774 145.953 66.6758C152.258 65.6335 157.655 61.7149 162.79 57.9105C163.058 57.7125 163.336 57.5015 163.474 57.1993C163.612 56.8968 163.553 56.476 163.26 56.32C162.923 56.141 162.526 56.3881 162.225 56.6232C157.447 60.3647 152.342 64.0205 146.417 65.3348C145.294 65.5839 144.056 65.7307 143.045 65.1806C142.289 64.7693 141.778 64.0295 141.296 63.3162L138.307 58.8935C138.056 58.5212 137.795 58.1207 137.785 57.6712C137.776 57.2217 138.139 56.7354 138.585 56.7934C142.775 57.3383 146.985 57.73 151.203 57.9675C151.539 57.9863 151.89 58.0015 152.196 57.8618C152.59 57.6818 152.83 57.2831 153.041 56.9043C154.827 53.6848 156.191 50.2317 157.087 46.661C158.279 47.5158 158.836 48.9635 159.366 50.3449C159.407 50.4498 159.447 50.5548 159.487 50.6587ZM155.8 46.3783C155.001 49.3647 153.821 52.2485 152.295 54.9368C152.04 55.3875 151.756 55.8517 151.308 56.1134C150.739 56.4466 150.032 56.3839 149.376 56.3107L138.94 55.1462C140.671 52.8581 143.244 51.373 145.814 50.0971C148.247 48.8892 150.744 47.8118 153.292 46.8709C154.099 46.573 154.945 46.2845 155.8 46.3783ZM98.1298 110.08C98.3874 112.509 98.659 114.988 99.691 117.202L98.0017 102.167C97.9323 101.548 97.9529 100.76 98.522 100.508C99.004 106.167 99.7222 111.806 100.674 117.405C100.787 118.069 99.789 118.449 99.2281 118.075C98.6675 117.7 98.488 116.971 98.3606 116.309C97.4313 111.485 96.9204 106.579 96.8356 101.667C95.6525 101.9 94.8229 103.046 94.5836 104.228C94.3443 105.41 94.5748 106.63 94.8054 107.814L97.031 119.242C97.3781 121.024 97.7252 122.866 97.3423 124.64C95.8699 117.917 94.686 111.131 93.7953 104.307C82.497 111.216 67.939 112.5 55.6053 107.677C52.9116 106.624 50.2362 105.228 48.4572 102.947C47.0556 101.151 46.3078 98.9206 45.9159 96.6761C44.5244 88.7045 47.3759 80.5734 51.2463 73.467C51.3471 73.2819 51.449 73.0962 51.5511 72.91C52.9361 70.3837 54.3791 67.7516 54.2688 64.8941C54.2615 64.7054 54.2481 64.5127 54.235 64.3191C54.1736 63.4297 54.1104 62.5148 54.6171 61.8098C55.2966 63.0457 55.5553 64.5084 55.3412 65.9027C67.038 65.3993 78.7519 65.2977 90.4556 65.5986C90.592 66.1368 89.8125 66.3867 89.2576 66.3784C78.3355 66.2155 67.408 66.4016 56.4978 66.9362C56.1525 66.9532 55.7897 66.9757 55.4967 67.1598C55.1886 67.3532 55.0091 67.6928 54.8436 68.0167C51.7471 74.0753 48.6405 80.2222 47.1438 86.8597C46.3741 90.2729 46.0793 94.0087 47.6567 97.132C48.2552 98.3166 49.1016 99.3631 50.0467 100.295C55.12 105.299 62.7171 106.834 69.8423 106.714C74.3898 106.637 78.9273 105.984 83.3113 104.773C87.9592 103.49 92.5944 101.468 95.767 97.8367C97.6298 95.7044 98.8962 93.1224 100.005 90.5168C102.122 85.5423 103.746 80.3578 104.846 75.0643C105.534 75.2092 105.544 76.1824 105.385 76.8675C103.42 85.3453 101.136 94.3818 94.663 100.199C88.8171 105.453 80.5795 107.082 72.732 107.522C68.1989 107.775 63.5944 107.696 59.2036 106.54C54.8131 105.385 50.6207 103.073 47.8334 99.4894C48.6464 102.589 51.4002 104.802 54.2672 106.233C61.7947 109.992 70.684 109.793 78.9959 108.487C84.5329 107.616 90.2161 106.188 94.5251 102.603C98.2082 99.5397 100.556 95.1642 102.322 90.7108C104.278 85.7816 105.635 80.6147 106.353 75.3606C106.8 75.0779 107.132 75.8683 107.075 76.3944C106.107 85.3994 102.656 94.1247 97.2048 101.357L98.1298 110.08ZM92.8951 125.479C92.4146 124.668 92.1055 123.756 91.9933 122.82L91.3032 125.159L89.5616 118.517C89.4265 118.002 89.0977 117.357 88.5768 117.468C88.0703 117.575 88.0133 118.27 88.0889 118.783C88.4682 121.359 89.1918 123.885 90.2344 126.272L88.3823 124.646C88.2923 125.42 88.4958 126.225 88.9432 126.862C87.9785 126.152 86.6845 125.909 85.5282 126.223C86.3547 127.371 87.4765 128.305 88.7555 128.908L87.1907 126.724C88.4556 127.454 89.7808 128.08 91.1485 128.593L89.8225 126.93L91.461 127.384C90.2073 124.532 88.9301 121.571 88.9605 118.456C89.435 120.99 90.1297 123.483 91.034 125.898C91.1875 126.307 91.3576 126.73 91.6841 127.02C92.0106 127.31 92.5413 127.42 92.8832 127.148C93.1491 126.937 93.2267 126.572 93.287 126.238L94.0248 122.146L94.8355 127.221C95.45 125.669 97.4485 125.279 99.118 125.269C101.322 125.255 103.543 125.498 105.758 125.741H105.759H105.759C109.752 126.177 113.727 126.612 117.553 125.538C117.44 126.129 117.244 126.705 116.971 127.241C120.058 126.792 123.182 126.595 126.302 126.652C127.619 126.677 128.941 126.746 130.263 126.815C133.756 126.999 137.249 127.182 140.672 126.533L117.956 126.334C118.383 126.309 118.71 125.813 118.564 125.411C118.419 125.009 117.85 124.837 117.506 125.091C117.283 124.381 116.279 124.065 115.689 124.52C116.031 123.465 116.707 122.523 117.596 121.86C116.593 121.806 115.574 122.114 114.768 122.713L117.211 111.405C117.005 111.227 116.66 111.347 116.507 111.572C116.357 111.796 116.34 112.08 116.324 112.35L116.323 112.358C116.094 116.219 114.733 120.007 112.451 123.13L111.555 120.537L110.27 123.634C109.688 123.183 108.862 123.07 108.18 123.346C108.354 124.008 108.884 124.565 109.536 124.773L109.84 123.958L111.847 125.302C111.08 124.499 110.914 123.184 111.457 122.215L112.671 124.252L115.025 119.597C115.038 121.466 114.237 123.232 113.452 124.928C114.305 124.26 115.039 123.439 115.607 122.516C116.156 123.488 115.556 124.791 114.602 125.37C113.648 125.948 112.467 125.98 111.352 125.932C109.651 125.86 107.936 125.647 106.224 125.433C102.379 124.954 98.544 124.476 94.8912 125.608L94.3644 120.752C93.5599 122.205 93.0565 123.825 92.8951 125.479ZM115.813 125.609C115.73 125.51 115.731 125.352 115.814 125.254L115.88 125.279C115.992 125.012 116.461 125.034 116.547 125.31C116.331 125.466 116.077 125.569 115.813 125.609ZM128.223 74.0085C125.578 72.6715 122.429 73.0322 119.493 73.4348C118.663 73.5485 117.817 73.6679 117.065 74.0374C116.313 74.407 115.659 75.0761 115.529 75.9036C108.357 75.008 101.484 71.8512 96.1316 66.9937C94.9699 65.9395 93.7845 64.4382 94.3069 62.9591C94.4712 62.4941 94.7907 62.1019 95.1228 61.7376C97.6185 59.0016 101.059 57.3561 104.408 55.7766C100.612 56.1096 96.9699 57.9559 94.4575 60.8211C93.8817 61.4776 93.3507 62.2113 93.1524 63.0617C92.6627 65.1618 94.294 67.1319 95.9263 68.5409C101.135 73.0364 107.687 75.9557 114.513 76.8227C114.922 76.8748 114.943 77.4503 114.906 77.8611C114.739 79.6889 115.736 81.4726 117.117 82.6817C118.498 83.8906 120.227 84.6165 121.944 85.2666C127.259 87.2798 132.775 88.7628 138.383 89.6857C138.754 89.7468 139.263 89.718 139.34 89.3505C138.046 88.4944 136.489 88.1682 134.965 87.8492C134.883 87.8322 134.801 87.8149 134.719 87.7976C130.857 86.9845 127.048 85.9257 123.32 84.6297C121.791 84.098 120.258 83.5172 118.925 82.599C117.591 81.6804 116.459 80.3831 116.033 78.8214C115.822 78.0501 116.108 76.8987 116.901 76.996C120.133 77.391 123.453 77.7812 126.608 76.9797C127.322 76.7984 128.066 76.5248 128.501 75.9305C128.936 75.3361 128.881 74.3409 128.223 74.0085ZM120.073 76.144C118.964 75.9529 117.831 75.9018 116.709 75.9921C117.254 74.9567 118.585 74.6842 119.745 74.5261C122.265 74.1831 124.889 73.8484 127.304 74.6473C127.463 74.7001 127.633 74.7675 127.72 74.9116C127.833 75.1014 127.751 75.3598 127.589 75.5109C127.428 75.6623 127.208 75.7309 126.995 75.7904C124.751 76.4173 122.369 76.539 120.073 76.144ZM83.3699 128.382C85.226 128.33 87.0935 128.741 88.7568 129.566C88.3122 130.205 87.4187 130.294 86.6407 130.324L66.3077 131.095C66.1212 131.073 66.0862 130.785 66.2182 130.651C66.3502 130.518 66.5565 130.501 66.744 130.491L86.593 129.523C85.4462 129.418 84.3273 129.022 83.3699 128.382ZM44.2394 61.1365C43.9499 62.5223 45.1221 64.0006 46.534 64.1053C44.2253 67.5848 40.0666 69.3017 36.0709 70.5139C33.577 71.2702 30.8106 71.8914 28.4331 70.8241C28.1381 71.0044 28.4527 71.4484 28.7642 71.5985C31.0778 72.7133 33.8207 72.0921 36.2818 71.3576C39.8907 70.2805 43.611 68.8885 46.0667 66.0329C46.1673 65.9161 46.2673 65.7959 46.3682 65.6747V65.6745H46.3684C47.0005 64.9148 47.6596 64.1226 48.6098 63.9467C51.6694 63.381 54.2177 61.4647 56.7355 59.5712L56.7358 59.5709L56.7361 59.5707C57.307 59.1413 57.8764 58.713 58.4499 58.3022C61.9363 55.8035 65.803 53.8364 69.8753 52.4903C70.235 52.3712 70.6724 52.1507 70.6404 51.7732C65.5913 52.2366 61.1779 55.2475 57.1084 58.2721L56.9728 58.3731C54.2071 60.4291 51.3169 62.5777 47.9138 63.0873C49.0255 62.2105 48.7908 60.1847 47.5366 59.5279C46.2825 58.8711 44.5293 59.7507 44.2394 61.1365ZM45.1817 61.9833C44.9548 61.311 45.3052 60.5114 45.9277 60.171C46.1044 60.0743 46.3019 60.0098 46.5035 60.0096C47.1681 60.0091 47.6536 60.72 47.658 61.3848C47.6624 62.0496 47.3254 62.6625 46.9979 63.2412C46.2317 63.1239 45.4298 62.7175 45.1817 61.9833ZM120.735 47.1708C120.547 46.9611 120.605 46.679 120.665 46.3866C120.707 46.18 120.751 45.9683 120.709 45.7739C120.673 45.605 120.575 45.4613 120.476 45.3172C120.388 45.1895 120.301 45.0616 120.256 44.9157C120.266 44.7228 120.524 44.6238 120.7 44.704C120.876 44.7839 120.974 44.9727 121.035 45.1558C121.259 45.8242 121.144 46.5967 120.735 47.1708ZM103.714 32.5047C104.185 31.3894 105.118 30.4002 106.307 30.1738C106.692 30.1006 106.679 29.4659 106.342 29.2666C106.005 29.067 105.572 29.1851 105.218 29.3533C103.571 30.1377 102.531 31.8639 102.123 33.6424C101.715 35.4212 101.85 37.2735 101.987 39.093L102.716 48.7649C102.741 49.0937 102.771 49.439 102.954 49.7134C103.327 50.2719 104.127 50.2894 104.797 50.2469L108.19 50.0313C107.436 49.4403 106.424 49.1917 105.482 49.3655C104.931 49.4674 104.379 49.1043 104.087 48.6267C103.796 48.1491 103.71 47.5777 103.638 47.023C103.165 43.3932 102.992 39.7245 103.12 36.0661C103.162 34.8565 103.244 33.62 103.714 32.5047ZM112.378 118.354C112.185 118.494 111.992 118.176 111.964 117.939C110.653 106.917 110.455 95.7967 110.259 84.6988L110.126 77.2172C110.123 77.004 110.126 76.7706 110.263 76.6074C110.498 76.326 110.994 76.455 111.2 76.7587C111.406 77.0622 111.406 77.4555 111.4 77.8224C111.198 88.7435 111.33 99.6857 112.376 110.558C112.389 110.691 112.402 110.823 112.414 110.956C112.654 113.425 112.897 115.932 112.378 118.354ZM101.476 48.8781C101.189 48.7203 100.835 48.8095 100.521 48.9026C85.9842 53.2018 71.4805 57.6351 57.1907 62.695C56.9233 62.7897 56.6174 62.9261 56.5561 63.2033C56.4911 63.4965 56.7673 63.7768 57.0628 63.8312C57.3583 63.8856 57.6572 63.7801 57.9393 63.6762C72.2601 58.4082 86.7962 53.7261 101.5 49.6455C101.815 49.5579 101.764 49.0357 101.476 48.8781Z" fill="#00160A"/>
<path fill-rule="evenodd" clip-rule="evenodd" d="M153.269 114.646C152.93 114.794 152.564 114.933 152.2 114.87C151.835 114.807 151.494 114.465 151.568 114.103C152.237 110.79 151.397 107.203 149.326 104.531C148.601 103.595 147.737 102.771 147.03 101.821C146.585 101.222 146.188 100.469 146.414 99.7574C146.736 98.7453 148.03 98.499 149.09 98.4268C151.553 98.2589 154.017 98.0911 156.48 97.9232C157.615 97.8458 158.922 97.8342 159.68 98.6829C161.789 101.045 165.899 101.204 168.184 99.0111C168.538 98.6718 168.983 99.3474 168.969 99.8371C168.925 101.377 168.29 102.893 167.224 104.006C166.972 104.268 166.65 104.525 166.289 104.487C165.927 104.45 165.66 103.931 165.949 103.709C166.567 103.234 167.197 102.747 167.631 102.099C168.065 101.45 168.275 100.601 167.979 99.8789C166.388 101.892 164.782 103.893 163.16 105.882C160.349 109.33 157.342 112.856 153.269 114.646ZM157.712 104.499C157.307 104.611 156.876 104.525 156.472 104.411C153.564 103.59 150.886 101.318 147.912 101.85C151.379 104.642 153.221 109.325 152.584 113.732C154.868 113.243 156.673 111.537 158.291 109.851C160.686 107.357 162.961 104.746 165.103 102.031C163.563 102.018 162.029 101.574 160.72 100.762C159.104 101.162 159.317 104.055 157.712 104.499ZM159.823 99.9124C158.86 98.777 157.129 98.8121 155.646 98.9423C153.712 99.1122 151.777 99.2822 149.843 99.4521C149.057 99.5212 148.155 99.6589 147.746 100.333C151.094 101.034 154.358 102.135 157.447 103.605C157.844 102.357 158.64 101.239 159.69 100.456C159.808 100.368 159.943 100.255 159.928 100.109C159.92 100.034 159.872 99.9699 159.823 99.9124Z" fill="#F0F2AE"/>
<path fill-rule="evenodd" clip-rule="evenodd" d="M16.4028 72.8364C13.4891 71.6711 10.0168 72.0169 7.38986 73.7336C7.13554 73.8996 6.76991 73.7145 6.64402 73.4381C6.51813 73.1614 6.56521 72.8398 6.6296 72.543C7.46858 68.6749 10.8109 65.7154 14.5278 64.3551C18.2446 62.9951 22.3103 62.9912 26.2614 63.2238C26.6534 63.2468 27.0631 63.2775 27.3976 63.4835C27.732 63.6893 27.9572 64.1295 27.7903 64.4851C26.2361 67.801 25.0654 71.2962 24.3088 74.879C24.1861 75.46 23.5852 75.8455 22.9934 75.894C22.4016 75.9425 21.8217 75.7236 21.2845 75.4703C19.6107 74.6812 18.1211 73.5237 16.4028 72.8364ZM16.7359 68.9228C16.4762 69.1337 16.0703 69.0223 15.826 68.7938C15.5816 68.5651 15.4424 68.2489 15.2503 67.9748C14.2201 66.5052 11.856 66.6272 10.4546 67.7484C9.05322 68.8696 8.3751 70.6415 7.7576 72.3266C11.8688 70.5409 16.9326 71.1817 20.4694 73.9355C20.9521 74.3115 21.4312 74.7349 22.0259 74.8798C22.6205 75.0245 23.3697 74.7643 23.5202 74.1712C24.3251 71.0025 25.3166 67.881 26.4881 64.8288C24.24 67.6228 19.5191 66.6615 16.7359 68.9228ZM15.8413 67.2342C16.0721 67.5241 16.4913 67.6012 16.8562 67.5357C17.2211 67.4702 17.5526 67.2884 17.8926 67.1406C19.0632 66.6318 20.3598 66.5184 21.6146 66.2858C22.8696 66.0529 24.1641 65.6592 25.0476 64.738C23.0543 64.7321 21.0609 64.7262 19.0676 64.72C17.0644 64.7141 14.9057 64.7566 13.2965 65.9495C14.2761 65.9851 15.2308 66.4671 15.8413 67.2342Z" fill="#F0F2AE"/>
<path fill-rule="evenodd" clip-rule="evenodd" d="M110.014 72.5696C110.01 70.8163 110.005 69.0628 110 67.3095C109.999 66.8062 109.998 66.3026 109.996 65.7989C109.995 65.4518 110.054 65.0173 110.384 64.9093C110.633 64.8278 110.908 65.007 111.024 65.2425C111.141 65.4776 111.14 65.7517 111.136 66.0142C111.1 68.4612 111.063 70.9078 111.027 73.3545C111.021 73.7065 110.963 74.1395 110.633 74.263C110.084 73.9517 110.016 73.2011 110.014 72.5696Z" fill="#00160A"/>
<path fill-rule="evenodd" clip-rule="evenodd" d="M106.514 70.9466C106.261 71.058 106.13 70.6397 106.169 70.3653C106.309 69.3836 106.45 68.3996 106.689 67.437C106.837 66.8377 107.052 66.2072 107.547 65.8382C108.042 65.4689 108.892 65.5336 109.134 66.1015C109.251 66.3766 109.202 66.691 109.148 66.9852C108.815 68.8065 108.366 70.607 107.805 72.3716C107.782 72.4464 107.756 72.5245 107.699 72.5789C107.561 72.7112 107.312 72.6222 107.216 72.4567C107.121 72.2911 107.133 72.0871 107.148 71.8966C107.376 71.8798 107.483 71.6116 107.537 71.3899C107.761 70.4837 107.984 69.5778 108.208 68.6717C108.382 67.9666 108.54 67.1636 108.136 66.5607C107.72 66.8168 107.564 67.3346 107.44 67.807C107.191 68.7573 106.942 69.7075 106.693 70.6578C106.663 70.7712 106.622 70.8994 106.514 70.9466Z" fill="#00160A"/>
</svg>
