<svg width="69" height="68" viewBox="0 0 69 68" fill="none" xmlns="http://www.w3.org/2000/svg">
<path d="M28.725 20.3438H40.275C44.675 20.3438 48.25 23.9187 48.25 28.3187V39.8687C48.25 41.9839 47.4098 44.0123 45.9142 45.5079C44.4186 47.0035 42.3901 47.8437 40.275 47.8437H28.725C24.325 47.8437 20.75 44.2687 20.75 39.8687V28.3187C20.75 26.2036 21.5902 24.1752 23.0858 22.6796C24.5814 21.184 26.6099 20.3438 28.725 20.3438ZM28.45 23.0937C27.1372 23.0937 25.8781 23.6153 24.9498 24.5436C24.0215 25.4719 23.5 26.7309 23.5 28.0437V40.1437C23.5 42.88 25.7137 45.0937 28.45 45.0937H40.55C41.8628 45.0937 43.1219 44.5722 44.0502 43.6439C44.9785 42.7156 45.5 41.4566 45.5 40.1437V28.0437C45.5 25.3075 43.2862 23.0937 40.55 23.0937H28.45ZM41.7187 25.1562C42.1746 25.1562 42.6118 25.3373 42.9341 25.6597C43.2564 25.982 43.4375 26.4192 43.4375 26.875C43.4375 27.3308 43.2564 27.768 42.9341 28.0903C42.6118 28.4127 42.1746 28.5937 41.7187 28.5937C41.2629 28.5937 40.8257 28.4127 40.5034 28.0903C40.1811 27.768 40 27.3308 40 26.875C40 26.4192 40.1811 25.982 40.5034 25.6597C40.8257 25.3373 41.2629 25.1562 41.7187 25.1562ZM34.5 27.2187C36.3234 27.2187 38.072 27.9431 39.3614 29.2324C40.6507 30.5217 41.375 32.2704 41.375 34.0937C41.375 35.9171 40.6507 37.6658 39.3614 38.9551C38.072 40.2444 36.3234 40.9687 34.5 40.9687C32.6766 40.9687 30.928 40.2444 29.6386 38.9551C28.3493 37.6658 27.625 35.9171 27.625 34.0937C27.625 32.2704 28.3493 30.5217 29.6386 29.2324C30.928 27.9431 32.6766 27.2187 34.5 27.2187ZM34.5 29.9687C33.406 29.9687 32.3568 30.4033 31.5832 31.1769C30.8096 31.9505 30.375 32.9997 30.375 34.0937C30.375 35.1878 30.8096 36.237 31.5832 37.0106C32.3568 37.7842 33.406 38.2187 34.5 38.2187C35.594 38.2187 36.6432 37.7842 37.4168 37.0106C38.1904 36.237 38.625 35.1878 38.625 34.0937C38.625 32.9997 38.1904 31.9505 37.4168 31.1769C36.6432 30.4033 35.594 29.9687 34.5 29.9687Z" fill="#595754"/>
</svg>
