<svg width="69" height="69" viewBox="0 0 69 69" fill="none" xmlns="http://www.w3.org/2000/svg">
<path fill-rule="evenodd" clip-rule="evenodd" d="M24.3438 20C23.3409 20 22.3791 20.3984 21.67 21.1075C20.9609 21.8166 20.5625 22.7784 20.5625 23.7813C20.5625 24.7841 20.9609 25.7459 21.67 26.455C22.3791 27.1641 23.3409 27.5625 24.3438 27.5625C25.3466 27.5625 26.3084 27.1641 27.0175 26.455C27.7266 25.7459 28.125 24.7841 28.125 23.7813C28.125 22.7784 27.7266 21.8166 27.0175 21.1075C26.3084 20.3984 25.3466 20 24.3438 20ZM22.625 23.7813C22.625 23.3254 22.8061 22.8882 23.1284 22.5659C23.4507 22.2436 23.8879 22.0625 24.3438 22.0625C24.7996 22.0625 25.2368 22.2436 25.5591 22.5659C25.8814 22.8882 26.0625 23.3254 26.0625 23.7813C26.0625 24.2371 25.8814 24.6743 25.5591 24.9966C25.2368 25.3189 24.7996 25.5 24.3438 25.5C23.8879 25.5 23.4507 25.3189 23.1284 24.9966C22.8061 24.6743 22.625 24.2371 22.625 23.7813ZM20.5625 29.2813C20.5625 29.0077 20.6711 28.7454 20.8645 28.552C21.0579 28.3587 21.3202 28.25 21.5938 28.25H27.0938C27.3673 28.25 27.6296 28.3587 27.823 28.552C28.0164 28.7454 28.125 29.0077 28.125 29.2813V47.1563C28.125 47.4298 28.0164 47.6921 27.823 47.8855C27.6296 48.0789 27.3673 48.1875 27.0938 48.1875H21.5938C21.3202 48.1875 21.0579 48.0789 20.8645 47.8855C20.6711 47.6921 20.5625 47.4298 20.5625 47.1563V29.2813ZM22.625 30.3125V46.125H26.0625V30.3125H22.625ZM30.1875 29.2813C30.1875 29.0077 30.2962 28.7454 30.4895 28.552C30.6829 28.3587 30.9452 28.25 31.2188 28.25H36.7188C36.9923 28.25 37.2546 28.3587 37.448 28.552C37.6414 28.7454 37.75 29.0077 37.75 29.2813V29.878L38.3481 29.6209C39.3794 29.1802 40.4735 28.9041 41.5904 28.8028C45.406 28.4563 48.75 31.4538 48.75 35.3038V47.1563C48.75 47.4298 48.6414 47.6921 48.448 47.8855C48.2546 48.0789 47.9923 48.1875 47.7188 48.1875H42.2188C41.9452 48.1875 41.6829 48.0789 41.4895 47.8855C41.2962 47.6921 41.1875 47.4298 41.1875 47.1563V37.5313C41.1875 37.0754 41.0064 36.6382 40.6841 36.3159C40.3618 35.9936 39.9246 35.8125 39.4688 35.8125C39.0129 35.8125 38.5757 35.9936 38.2534 36.3159C37.9311 36.6382 37.75 37.0754 37.75 37.5313V47.1563C37.75 47.4298 37.6414 47.6921 37.448 47.8855C37.2546 48.0789 36.9923 48.1875 36.7188 48.1875H31.2188C30.9452 48.1875 30.6829 48.0789 30.4895 47.8855C30.2962 47.6921 30.1875 47.4298 30.1875 47.1563V29.2813ZM32.25 30.3125V46.125H35.6875V37.5313C35.6875 36.5284 36.0859 35.5666 36.795 34.8575C37.5041 34.1484 38.4659 33.75 39.4688 33.75C40.4716 33.75 41.4334 34.1484 42.1425 34.8575C42.8516 35.5666 43.25 36.5284 43.25 37.5313V46.125H46.6875V35.3038C46.6875 32.6858 44.4036 30.6178 41.7788 30.857C40.877 30.939 39.9936 31.1617 39.1608 31.517L37.1258 32.3901C36.9688 32.4575 36.7975 32.4849 36.6274 32.4698C36.4572 32.4546 36.2935 32.3975 36.1509 32.3034C36.0083 32.2094 35.8913 32.0813 35.8104 31.9309C35.7295 31.7804 35.6873 31.6122 35.6875 31.4414V30.3125H32.25Z" fill="#595754"/>
</svg>
