<svg width="27" height="41" viewBox="0 0 27 41" fill="none" xmlns="http://www.w3.org/2000/svg">
<g clip-path="url(#clip0_329_2615)">
<path d="M13.5 20.2499C13.5 16.56 16.4913 13.5686 20.1813 13.5686C23.8712 13.5686 26.8626 16.56 26.8626 20.2499C26.8626 23.9399 23.8712 26.9312 20.1813 26.9312C16.4913 26.9312 13.5 23.9399 13.5 20.2499Z" fill="#1ABCFE"/>
<path d="M0.137436 33.6127C0.137436 29.9228 3.12874 26.9314 6.81872 26.9314H13.5V33.6127C13.5 37.3027 10.5087 40.294 6.81872 40.294C3.12874 40.294 0.137436 37.3027 0.137436 33.6127Z" fill="#0ACF83"/>
<path d="M13.5 0.206299V13.5688H20.1813C23.8713 13.5688 26.8626 10.5775 26.8626 6.88757C26.8626 3.19761 23.8713 0.206299 20.1813 0.206299H13.5Z" fill="#FF7262"/>
<path d="M0.137436 6.88758C0.137436 10.5775 3.12874 13.5688 6.81872 13.5688H13.5V0.206299H6.81872C3.12874 0.206299 0.137436 3.19761 0.137436 6.88758Z" fill="#F24E1E"/>
<path d="M0.137436 20.2499C0.137436 23.9399 3.12874 26.9312 6.81872 26.9312H13.5V13.5686H6.81872C3.12874 13.5686 0.137436 16.56 0.137436 20.2499Z" fill="#A259FF"/>
</g>
<defs>
<clipPath id="clip0_329_2615">
<rect width="27" height="40.5" fill="white"/>
</clipPath>
</defs>
</svg>
