<svg width="70" height="62" viewBox="0 0 70 62" fill="none" xmlns="http://www.w3.org/2000/svg">
<path d="M49.125 31.0035C49.125 30.9326 49.125 30.8521 49.1218 30.7586C49.1186 30.4976 49.1121 30.2043 49.1057 29.8917C49.0799 28.9926 49.0348 28.0967 48.9639 27.2524C48.8672 26.089 48.7254 25.119 48.532 24.3906C48.328 23.6306 47.928 22.9374 47.3721 22.3803C46.8162 21.8233 46.1238 21.4219 45.3642 21.2163C44.4521 20.9714 42.6668 20.8199 40.1531 20.7265C38.9575 20.6814 37.6781 20.6524 36.3987 20.6362C35.9508 20.6298 35.5351 20.6266 35.1612 20.6234H34.2138C33.8399 20.6266 33.4242 20.6298 32.9763 20.6362C31.6969 20.6524 30.4175 20.6814 29.2219 20.7265C26.7082 20.8232 24.9196 20.9746 24.0108 21.2163C23.2509 21.4214 22.5583 21.8226 22.0023 22.3797C21.4463 22.9369 21.0465 23.6303 20.843 24.3906C20.6464 25.119 20.5078 26.089 20.4111 27.2524C20.3402 28.0967 20.2951 28.9926 20.2693 29.8917C20.2597 30.2043 20.2564 30.4976 20.2532 30.7586C20.2532 30.8521 20.25 30.9326 20.25 31.0035V31.184C20.25 31.2549 20.25 31.3355 20.2532 31.4289C20.2564 31.69 20.2629 31.9832 20.2693 32.2958C20.2951 33.1949 20.3402 34.0908 20.4111 34.9352C20.5078 36.0985 20.6496 37.0686 20.843 37.7969C21.2555 39.3405 22.4672 40.5587 24.0108 40.9712C24.9196 41.2161 26.7082 41.3676 29.2219 41.461C30.4175 41.5062 31.6969 41.5352 32.9763 41.5513C33.4242 41.5577 33.8399 41.561 34.2138 41.5642H35.1612C35.5351 41.561 35.9508 41.5577 36.3987 41.5513C37.6781 41.5352 38.9575 41.5062 40.1531 41.461C42.6668 41.3644 44.4554 41.2129 45.3642 40.9712C46.9078 40.5587 48.1195 39.3438 48.532 37.7969C48.7286 37.0686 48.8672 36.0985 48.9639 34.9352C49.0348 34.0908 49.0799 33.1949 49.1057 32.2958C49.1153 31.9832 49.1186 31.69 49.1218 31.4289C49.1218 31.3355 49.125 31.2549 49.125 31.184V31.0035ZM46.8047 31.1711C46.8047 31.2388 46.8047 31.3129 46.8015 31.3999C46.7982 31.6513 46.7918 31.9284 46.7854 32.2281C46.7628 33.0854 46.7177 33.9426 46.65 34.7386C46.563 35.7763 46.4405 36.6271 46.2891 37.1975C46.0893 37.9419 45.5027 38.5317 44.7615 38.7282C44.0848 38.9087 42.38 39.0537 40.0629 39.1407C38.8898 39.1859 37.6266 39.2149 36.3665 39.231C35.925 39.2374 35.5157 39.2406 35.1483 39.2406H34.2267L33.0085 39.231C31.7484 39.2149 30.4884 39.1859 29.3121 39.1407C26.995 39.0505 25.287 38.9087 24.6135 38.7282C23.8723 38.5284 23.2857 37.9419 23.0859 37.1975C22.9345 36.6271 22.812 35.7763 22.725 34.7386C22.6573 33.9426 22.6154 33.0854 22.5896 32.2281C22.58 31.9284 22.5768 31.6481 22.5735 31.3999C22.5735 31.3129 22.5703 31.2356 22.5703 31.1711V31.0164C22.5703 30.9487 22.5703 30.8746 22.5735 30.7876C22.5768 30.5362 22.5832 30.2591 22.5896 29.9594C22.6122 29.1022 22.6573 28.2449 22.725 27.4489C22.812 26.4112 22.9345 25.5605 23.0859 24.9901C23.2857 24.2456 23.8723 23.6559 24.6135 23.4593C25.2902 23.2788 26.995 23.1338 29.3121 23.0468C30.4852 23.0017 31.7484 22.9727 33.0085 22.9566C33.45 22.9501 33.8593 22.9469 34.2267 22.9469H35.1483L36.3665 22.9566C37.6266 22.9727 38.8866 23.0017 40.0629 23.0468C42.38 23.137 44.088 23.2788 44.7615 23.4593C45.5027 23.6591 46.0893 24.2456 46.2891 24.9901C46.4405 25.5605 46.563 26.4112 46.65 27.4489C46.7177 28.2449 46.7596 29.1022 46.7854 29.9594C46.795 30.2591 46.7982 30.5395 46.8015 30.7876C46.8015 30.8746 46.8047 30.952 46.8047 31.0164V31.1711ZM31.8193 35.4121L39.2959 31.0615L31.8193 26.7754V35.4121Z" fill="#595754"/>
</svg>
